<svg id="Capa_1" enable-background="new 0 0 512 512" height="512" viewBox="0 0 512 512" width="512" xmlns="http://www.w3.org/2000/svg" xmlns:xlink="http://www.w3.org/1999/xlink"><linearGradient id="SVGID_1_" gradientUnits="userSpaceOnUse" x1="256" x2="256" y1="512" y2="0"><stop offset="0" stop-color="#5558ff"/><stop offset="1" stop-color="#00c0ff"/></linearGradient><linearGradient id="SVGID_00000113348958569747888200000004290468082920955536_" gradientUnits="userSpaceOnUse" x1="256" x2="256" y1="422" y2="30"><stop offset="0" stop-color="#addcff"/><stop offset=".5028" stop-color="#eaf6ff"/><stop offset="1" stop-color="#eaf6ff"/></linearGradient><g><g><g><path d="m482 120h-76-150-150-76c-16.569 0-30 13.431-30 30v317c0 24.853 20.147 45 45 45h422c24.853 0 45-20.147 45-45v-317c0-16.569-13.431-30-30-30zm-361-90v-15c0-8.401-6.599-15-15-15s-15 6.599-15 15v15l-31 45 46 45 45-45zm150 0v-15c0-8.401-6.599-15-15-15s-15 6.599-15 15v15l-30 45 45 45 45-45zm150 0v-15c0-8.401-6.599-15-15-15s-15 6.599-15 15v15l-30 45 45 45 45-45z" fill="url(#SVGID_1_)"/></g></g><g><g><path d="m151 212v-15c0-8.291-6.709-15-15-15s-15 6.709-15 15v15c-24.814 0-45 20.186-45 45 0 6.387 1.318 12.539 4.775 20.098l-.029.015c1.654 3.309 13.736 27.47 15.003 30.006 5.413 10.816 14.786 18.518 25.782 22.256 1.315 14.854 9.056 27.825 21.442 34.325 4.951 2.607 8.027 7.704 8.027 13.3 0 8.276-6.738 15-15 15s-15-6.724-15-15c0-8.291-6.709-15-15-15s-15 6.709-15 15c0 24.814 20.186 45 45 45s45-20.186 45-45c0-16.772-9.229-32.036-24.082-39.844-2.666-1.412-4.281-4.686-5.112-8.372 10.393-3.917 19.266-11.309 24.448-21.672l14.971-29.941c0-.073.059-.103.059-.132 3.134-6.284 4.716-13.022 4.716-20.039 0-24.814-20.186-45-45-45zm-55.251 95.118c-.001-.002-.002-.004-.003-.006.158.316.145.289.003.006zm340.251-95.118c-8.284 0-15 6.716-15 15s6.716 15 15 15 15-6.716 15-15-6.716-15-15-15zm-60 0c-8.284 0-15 6.716-15 15s6.716 15 15 15 15-6.716 15-15-6.716-15-15-15zm-120 60c-8.284 0-15 6.716-15 15s6.716 15 15 15 15-6.716 15-15-6.716-15-15-15zm60 0c-8.284 0-15 6.716-15 15s6.716 15 15 15 15-6.716 15-15-6.716-15-15-15zm120 0c-8.284 0-15 6.716-15 15s6.716 15 15 15 15-6.716 15-15-6.716-15-15-15zm-60 0c-8.284 0-15 6.716-15 15s6.716 15 15 15 15-6.716 15-15-6.716-15-15-15zm-120 60c-8.284 0-15 6.716-15 15s6.716 15 15 15 15-6.716 15-15-6.716-15-15-15zm60 0c-8.284 0-15 6.716-15 15s6.716 15 15 15 15-6.716 15-15-6.716-15-15-15zm120 0c-8.284 0-15 6.716-15 15s6.716 15 15 15 15-6.716 15-15-6.716-15-15-15zm-60 0c-8.284 0-15 6.716-15 15s6.716 15 15 15 15-6.716 15-15-6.716-15-15-15zm-120 60c-8.284 0-15 6.716-15 15s6.716 15 15 15 15-6.716 15-15-6.716-15-15-15zm60 0c-8.284 0-15 6.716-15 15s6.716 15 15 15 15-6.716 15-15-6.716-15-15-15zm151-362h-46v45c0 8.401-6.599 15-15 15s-15-6.599-15-15v-45h-120v45c0 8.401-6.599 15-15 15s-15-6.599-15-15v-45h-120v45c0 8.401-6.599 15-15 15s-15-6.599-15-15v-45h-46c-24.902 0-45 20.099-45 45v75h512v-75c0-24.901-20.098-45-45-45z" fill="url(#SVGID_00000113348958569747888200000004290468082920955536_)"/></g></g></g></svg>