<svg id="Capa_1" enable-background="new 0 0 512 512" height="512" viewBox="0 0 512 512" width="512" xmlns="http://www.w3.org/2000/svg"><g clip-rule="evenodd" fill-rule="evenodd"><path d="m317 142.361v-19.687c0-13.604-4.479-26.179-12.036-36.336-12.445 12.735-29.792 20.662-48.964 20.662s-36.519-7.927-48.964-20.663c-7.557 10.157-12.036 22.733-12.036 36.337v19.687c18.173-9.795 38.948-15.361 61-15.361s42.826 5.566 61 15.361z"/><path d="m256 77c21.229 0 38.5-17.271 38.5-38.5s-17.271-38.5-38.5-38.5-38.5 17.271-38.5 38.5 17.271 38.5 38.5 38.5z"/><path d="m195 369.638v19.688c0 13.604 4.479 26.18 12.036 36.336 12.445-12.735 29.792-20.662 48.964-20.662s36.519 7.927 48.964 20.662c7.557-10.156 12.036-22.732 12.036-36.335v-19.688c-18.174 9.794-38.948 15.361-61 15.361s-42.827-5.567-61-15.362z"/><ellipse cx="256" cy="473.5" rx="38.5" ry="38.5" transform="matrix(.383 -.924 .924 .383 -279.424 528.812)"/><path d="m389.327 195h-19.687c9.794 18.173 15.36 38.948 15.36 61s-5.566 42.827-15.361 61h19.688c13.604 0 26.179-4.479 36.336-12.036-12.737-12.445-20.663-29.792-20.663-48.964s7.927-36.519 20.663-48.964c-10.157-7.557-22.733-12.036-36.336-12.036z"/><ellipse cx="473.5" cy="256" rx="38.5" ry="38.5" transform="matrix(.707 -.707 .707 .707 -42.335 409.796)"/><path d="m142.361 195h-19.688c-13.604 0-26.179 4.479-36.336 12.036 12.737 12.445 20.663 29.792 20.663 48.964s-7.927 36.519-20.663 48.964c10.157 7.557 22.733 12.036 36.336 12.036h19.688c-9.794-18.174-15.361-38.948-15.361-61s5.567-42.827 15.361-61z"/><ellipse cx="38.5" cy="256" rx="38.5" ry="38.5" transform="matrix(.973 -.23 .23 .973 -57.787 15.694)"/><path d="m256 157c-54.588 0-99 44.411-99 99s44.411 99 99 99 99-44.411 99-99-44.411-99-99-99zm64 121c0 8.284-6.716 15-15 15h-65.251l-24.016 17.195c-2.595 1.858-5.657 2.804-8.734 2.804-2.342 0-4.693-.548-6.854-1.659-5-2.569-8.144-7.719-8.144-13.341l-.001-86.999c0-3.978 1.58-7.793 4.394-10.606 2.812-2.813 6.627-4.394 10.606-4.394h98c8.284 0 15 6.716 15 15z"/><path d="m222 268.811 4.2-3.007c2.546-1.824 5.6-2.804 8.732-2.804h55.068v-37h-68z"/></g></svg>